<svg id="Layer_1" data-name="Layer 1" xmlns="http://www.w3.org/2000/svg" viewBox="0 0 1200 206"><defs><style>.cls-1{fill:#4a6364;}.cls-2{fill:#ee7f35;}</style></defs><path class="cls-1" d="M530.59,97.75a4,4,0,0,0-.53,2.86q0,17.94,0,35.86c0,3.47-.65,4.07-4.15,4.05-4.62,0-9.25,0-13.87,0-2.49,0-3.59-1-3.58-3.59q.07-39.64.05-79.3c0-3.45.42-3.83,4-3.84,4.63,0,9.26.13,13.88-.05a5.55,5.55,0,0,1,5.74,3.56q9.17,18.93,18.43,37.82c.84,1.72,1.67,3.45,2.57,5.14.35.65.46,1.63,1.45,1.67s1.17-1,1.49-1.6c2.71-5.46,5.38-10.95,8.06-16.42q6.6-13.5,13.2-27a5,5,0,0,1,4.94-3.14q7.59.08,15.18,0c2.47,0,3.4,1.13,3.4,3.53q0,39.91,0,79.82c0,2.43-1.08,3.48-3.49,3.45-4.89-.08-9.77-.13-14.66-.06-2.64,0-3.52-1.18-3.51-3.66q.06-18.06,0-36.12c0-.88.41-1.9-.66-2.92-2.76,5.65-5.47,11.16-8.14,16.7-2.31,4.78-4.56,9.59-6.86,14.38a5.17,5.17,0,0,1-4.93,3.26c-2.53,0-5.06,0-7.59,0a5.33,5.33,0,0,1-5.29-3.45c-4.55-9.6-9.2-19.15-13.83-28.71C531.53,99.33,531.12,98.68,530.59,97.75Z"/><path class="cls-1" d="M1152.84,97.24q0,19.64,0,39.26c0,3.48-.58,4.05-4.12,4.06s-7.33-.05-11,0a6.18,6.18,0,0,1-5.34-2.67q-16.45-21.15-33-42.25c-.32-.42-.62-.85-1-1.23s-.54-.53-.8-.51c-.54,0-.58.57-.6,1,0,.61,0,1.22,0,1.83q0,19.63,0,39.26c0,4.08-.47,4.56-4.45,4.57-4.54,0-9.08,0-13.61,0-3.1,0-3.7-.69-3.71-3.7q0-39.51,0-79c0-3.41.55-4,3.92-4s6.65.18,9.94-.06,5.56,1,7.54,3.64c7.57,9.9,15.27,19.71,22.92,29.54q4.82,6.19,9.66,12.36c.42.54.83,1.35,1.58,1.12s.46-1.2.46-1.84q0-20.4,0-40.82c0-3.36.58-3.94,4-4q6.81,0,13.61,0c3.44,0,3.95.52,3.95,3.92V97.24Z"/><path class="cls-1" d="M796.52,97.26q0-19.62,0-39.25c0-3.81.41-4.21,4.19-4.22,3.4,0,6.81.14,10.21,0A7.29,7.29,0,0,1,817.57,57Q833.73,77.92,850,98.71c.32.41.66.81,1,1.23s.6.71,1.07.54.53-.65.53-1.1c0-1,0-2.09,0-3.13q0-19.36,0-38.73c0-3,.64-3.69,3.65-3.71,4.89,0,9.77,0,14.66,0,2.34,0,3.28,1.05,3.27,3.34q0,40,0,80.06c0,2.26-.9,3.37-3.28,3.33-3.66-.07-7.33-.09-11,.08a7.4,7.4,0,0,1-6.69-3.22q-16-20.67-32.16-41.24a5.74,5.74,0,0,0-.63-.82c-.57-.49-.76-1.69-1.65-1.43s-.56,1.35-.57,2.08c0,3.84,0,7.68,0,11.52q0,14.64,0,29.3c0,3.17-.42,3.62-3.63,3.68q-7.2.12-14.39.07c-3,0-3.61-.7-3.61-3.78q0-19.76,0-39.51Z"/><path class="cls-1" d="M699.47,97.09c-.16,24.28-18.8,44.17-43.15,45.14-24.9,1-46-18.94-46.68-43.77a45.08,45.08,0,0,1,44.65-46.34C678.27,51.71,699.1,71,699.47,97.09Zm-22.05.24A23.07,23.07,0,0,0,655.1,73.71c-12.53-.34-23.15,10-23.45,22.82-.3,13,9.83,23.92,22.39,24.16C667,120.93,677.09,110.84,677.42,97.33Z"/><path class="cls-2" d="M43.67,97.27C45.1,74.8,56,58.48,75.82,47.79c9.75-5.25,20-5.95,30.66-4.6,10.55,1.33,20.85,3.5,30.11,8.84,16.92,9.75,25.93,24.63,26.83,44.09.81,17.38-5,32.79-16,46-7.28,8.73-17,13.73-28.11,16.48-20.51,5.1-38.73.42-54.72-12.82-8.54-7.07-14-16.48-17.45-27.08A70.06,70.06,0,0,1,43.67,97.27ZM100,54.89c-3.62-.17-7.34-.15-10.56,1.4C77.54,62,67.63,70,61.91,82.24c-6.85,14.66-6.75,29.07,2.8,42.59,7.64,10.82,18.45,17.19,31.13,20.56,9.52,2.54,18.76,2.77,27.22-3.41a32.29,32.29,0,0,1,3.88-2.14c13.86-7.44,21.8-18.84,23-34.65,1.14-15.41-4.13-28.48-15.63-38.62C124.59,58,112.6,55.2,100,54.89Z"/><path class="cls-1" d="M435.16,53.8h28.53c3.19,0,3.92.67,3.94,3.75,0,4.71,0,9.42,0,14.13,0,2.9-.78,3.72-3.71,3.73-11.87,0-23.73,0-35.6,0-3.36,0-3.83.43-3.86,3.68,0,1.83.09,3.67,0,5.49-.12,2.39,1,3.24,3.3,3.23,9.16-.06,18.32,0,27.48,0,4.28,0,4.7.43,4.7,4.6,0,3.84,0,7.68,0,11.52,0,3.47-.63,4.07-4.18,4.08H428.28c-3.45,0-3.72.3-3.74,3.73v2.62c0,4.55,0,4.62,4.71,4.63,11.43,0,22.86,0,34.29,0,3.52,0,4.07.59,4.08,4.12q0,6.81,0,13.61c0,3-.7,3.75-3.67,3.75-19.28,0-38.56,0-57.84,0-2.47,0-3.45-1.05-3.45-3.46q0-39.9,0-79.8c0-2.79.78-3.48,3.66-3.48Q420.76,53.78,435.16,53.8Z"/><path class="cls-1" d="M389.76,97.19q0,19.62,0,39.25c0,3.61-.43,4-4.09,4.05-4.45,0-8.9.07-13.35,0-3.91-.05-4.21-.38-4.22-4.2q0-11.78,0-23.55c0-4-.39-4.41-4.25-4.41q-13.22,0-26.44,0c-3.19,0-3.68.48-3.68,3.62,0,8.28,0,16.57,0,24.85,0,3.08-.6,3.67-3.67,3.68-4.37,0-8.73,0-13.09,0-4.6,0-4.8-.17-4.8-4.88V63.41c0-2.1,0-4.19,0-6.28,0-2.28,1-3.36,3.31-3.34,5,.05,9.95.08,14.92,0,2.53,0,3.4,1.21,3.39,3.54,0,8.46,0,16.92,0,25.38a23,23,0,0,0,0,2.35,2.27,2.27,0,0,0,2.54,2.34q14.54-.06,29.06,0c2.55,0,2.74-1.64,2.74-3.5q0-13,0-25.91c0-3.73.46-4.17,4.23-4.18q6.67,0,13.35,0c3.45,0,4,.56,4,4.13q0,19.62,0,39.25Z"/><path class="cls-1" d="M1022,140.54h-8.63a3.82,3.82,0,0,1-3.94-2.81c-.87-2.45-1.87-4.86-2.74-7.32a3.22,3.22,0,0,0-3.34-2.38H975.12a3.08,3.08,0,0,0-3.16,2.22c-1,2.52-2,5-2.91,7.55a3.69,3.69,0,0,1-3.68,2.74c-5.93,0-11.87.07-17.79,0-2.27,0-2.79-1-1.86-3.35,3.33-8.6,6.73-17.18,10.11-25.76,7.09-18,14.22-35.91,21.22-53.9,1-2.67,2.53-3.87,5.42-3.77,4.79.15,9.59.09,14.39,0a4.31,4.31,0,0,1,4.53,3.11q15.66,40,31.39,79.9c1.16,2.94.56,3.75-2.64,3.76H1022Zm-32.8-32.83h0c2.09,0,4.18,0,6.28,0,1.89,0,2.63-.85,2-2.62-2.36-6.63-4.78-13.25-7.18-19.87-.18-.48-.33-1.1-.93-1.13-.77,0-.88.7-1.09,1.26-2.36,6.44-4.75,12.88-7.07,19.33-.82,2.27-.28,3,2.22,3C985.39,107.74,987.31,107.71,989.23,107.71Z"/><path class="cls-1" d="M784.86,83.88c-.16,6.7.17,14.54-.2,22.39-1,21-16.22,35.75-37.22,36-8.33.11-16.35-1.2-23.53-5.71-9.86-6.17-14.76-15.49-16.33-26.72-1.13-8.07-.41-16.2-.51-24.3-.11-9.25,0-18.49,0-27.74,0-3.22.77-4,4-4,4.54,0,9.07,0,13.61,0,3.64,0,4.22.59,4.22,4.26,0,13.52,0,27,0,40.55,0,3.83,0,7.67,1.24,11.38q3.23,9.56,13.25,10.48c12.32,1.14,19.69-5.51,19.74-17.9.06-14.83,0-29.65,0-44.48,0-3.68.59-4.28,4.21-4.29q6.68,0,13.35,0c3.48,0,4.22.75,4.22,4.35C784.87,66.34,784.86,74.53,784.86,83.88Z"/><path class="cls-1" d="M919,53.81q16.6,0,33.23,0c3.21,0,4,.81,4.06,4q0,6.93,0,13.87c0,2.92-.82,3.74-3.72,3.76-6.2,0-12.39,0-18.59,0-3.65,0-4,.36-4,4q0,28,0,56c0,4.68-.42,5.11-5,5.11-4.36,0-8.72,0-13.08,0-3,0-3.68-.67-3.68-3.7q0-28.63,0-57.29c0-3.59-.51-4.11-4-4.12H886.08c-3.71,0-4.16-.44-4.18-4.24,0-4.62,0-9.24,0-13.86,0-2.86.65-3.51,3.57-3.52Q902.23,53.78,919,53.81Z"/><path class="cls-1" d="M267.19,53.81q16.6,0,33.23,0c3.34,0,4,.64,4,3.94,0,4.8-.06,9.59,0,14.39,0,2.35-1.06,3.31-3.32,3.3-6.28,0-12.56,0-18.84,0-3.7,0-4.11.39-4.11,4q0,28.38,0,56.76c0,3.89-.41,4.31-4.37,4.32q-6.28,0-12.56,0c-4.53,0-4.78-.27-4.78-4.72V80.59c0-.7,0-1.39,0-2.09,0-2.21-1.07-3.09-3.24-3.08-6.36,0-12.73,0-19.1,0-3.23,0-4-.77-4.05-4,0-4.62,0-9.24,0-13.86,0-3,.86-3.8,3.93-3.8Q250.57,53.79,267.19,53.81Z"/><path class="cls-1" d="M1040.6,97.07q0-19.62,0-39.25c0-3.48.53-4,3.9-4,4.88,0,9.77,0,14.66,0,2.09,0,3.12,1,3.18,2.94.09,3.05,0,6.1,0,9.15v69.87c0,4.51-.38,4.82-5,4.75-4.18-.06-8.37,0-12.56,0-3.83,0-4.23-.41-4.24-4.18V97.07Z"/><path class="cls-2" d="M81,168.42c-.29,4.5-2.55,8.24-6.2,11.27A24.56,24.56,0,0,1,68,183.48c-3.27,1.29-5.65.14-6.75-3.22a14.24,14.24,0,0,1-.21-8.45c.59-2,1.31-4,1.7-6,1.16-6.13,6.11-7.06,11.21-6.94C78.07,158.94,81,163.27,81,168.42Z"/><path class="cls-2" d="M35.57,162.09c0-5.22,2.37-9.57,5.53-13.39,3.87-4.67,10-5,14.09-1.15s3.89,9.53-.57,13.86a29.55,29.55,0,0,1-12.35,7.06C37.71,169.81,35.44,167.52,35.57,162.09Z"/><path class="cls-2" d="M180.08,89.78c5.82.38,10.45,1.1,14.36,4.1,3.09,2.38,3.21,4.29.6,7.17-3.58,3.94-8.14,6.14-13.21,7.42a6.61,6.61,0,0,1-5.69-1.16c-2.58-1.89-5.07-3.81-6.1-7.11a6.47,6.47,0,0,1,2.16-7.46C174.83,90.68,177.73,89.49,180.08,89.78Z"/><path class="cls-2" d="M149.77,25.93a29.09,29.09,0,0,1-2.5,10.64,11.32,11.32,0,0,1-11.47,6,5.81,5.81,0,0,1-4.5-3.23c-2.59-5.49-2.68-11.73,2.72-16a33.88,33.88,0,0,1,8.16-5.07c3.69-1.53,6.14-.29,7,3.58A41.08,41.08,0,0,1,149.77,25.93Z"/><path class="cls-2" d="M160.7,59.7C157,60,154.25,58,152.48,55s-1.08-6.15.73-8.9c3.59-5.45,9.12-8.18,15.16-9.88,2.71-.76,4.48.66,5.17,3.37,1.53,6.08-3.12,16.49-8.66,19.4A8.23,8.23,0,0,1,160.7,59.7Z"/><path class="cls-2" d="M36.83,106.94c.07,4-3.06,7.21-7.76,8.18a19.3,19.3,0,0,1-11.24-1.18c-2.16-.85-4.4-1.58-6.1-3.37-2.17-2.27-2.36-4.28-.24-6.61,4-4.39,9.24-6.42,14.87-7.55C30,95.67,37.55,102.65,36.83,106.94Z"/><path class="cls-2" d="M25.23,142.87c-6.37.07-8.76-3.19-7.19-8.45,1.46-4.9,8.68-11.14,13.75-11.14a15,15,0,0,1,9.92,3.44A4.79,4.79,0,0,1,43,131.81a18.24,18.24,0,0,1-5.73,8.84c-1.52,1.38-3.76,1.14-5.76,1.34C29.05,142.23,26.65,142.66,25.23,142.87Z"/><path class="cls-2" d="M175,83.17a16.64,16.64,0,0,1-7.37-2.82c-2.23-1.43-2.73-3.47-1.69-5.9.45-1,.9-2.08,1.31-3.13,1.63-4.06,4.32-6.56,9-6.67,3.36-.08,6.68-1.15,10.09-.39,3.75.82,5.62,3.82,4.49,7.34A17.19,17.19,0,0,1,175,83.17Z"/><path class="cls-2" d="M107.08,177.71c0,6.92-2,11.66-7.38,14.51-2.93,1.56-3.66,1.34-5.46-1.37-2.32-3.47-4.55-7-5.26-11.22-.91-5.55,1.15-9.72,6.14-12.25,3.94-2,9.08.34,10.74,4.84A15.73,15.73,0,0,1,107.08,177.71Z"/><path class="cls-2" d="M102.64,22a14.46,14.46,0,0,1,7.63-11.74c2-1.19,4.91-.33,6.72,2.49,3.49,5.43,5.45,11.24,2.59,17.71a8.64,8.64,0,0,1-7.3,5.57c-3.34.32-5.33-2-7-4.61A16.72,16.72,0,0,1,102.64,22Z"/><path class="cls-2" d="M160.88,168.37c0,6.45-2.09,8.17-7.51,7.15-1.28-.24-2.57-.43-3.84-.72-7.95-1.83-12.25-12.62-7.65-19.16,1.6-2.28,3.48-2.92,6.07-1.9s5.31,2.17,7.91,3.38a6.66,6.66,0,0,1,4.13,5.31C160.31,164.74,160.68,167.05,160.88,168.37Z"/><path class="cls-2" d="M61,45.63c-3.74-.26-7.7-2.39-11.53-4.83A4.33,4.33,0,0,1,47.72,38a33,33,0,0,1-.44-11.42,3.57,3.57,0,0,1,3.13-3.09c9.82-1.64,19.17,8.35,16.85,18C66.5,44.6,65.16,45.65,61,45.63Z"/><path class="cls-2" d="M182.24,134.44c-5-.67-9.7-1.91-13.6-5.31-2-1.7-3.12-3.76-2.52-6.45.55-2.48,2.6-3.29,4.66-4.1,8.49-3.32,15.42-.52,21.46,5.55,2.48,2.49,2.23,4.82-.51,7S185.65,134,182.24,134.44Z"/><path class="cls-2" d="M24.91,69.48c5.41.74,10.73,2.61,14.23,7.78,2,3,1,6.36-2.3,7.94-7.92,3.83-20.15-.24-24.29-8-1-1.88-.33-3.17,1.16-4.27C16.89,70.56,20.55,69.72,24.91,69.48Z"/><path class="cls-2" d="M40.46,63.33a23.41,23.41,0,0,1-4.93-.62,9.14,9.14,0,0,1-8-7.2C26.89,53.17,26,50.89,26,48.39c.06-2.83,1.74-4.88,4.58-4.93,5.63-.09,10.9,1.16,15.19,5.1,3.66,3.34,3.79,10,.32,13.51C45.05,63.14,43.78,63.44,40.46,63.33Z"/><path class="cls-2" d="M93.85,27a11.43,11.43,0,0,1-2.6,7c-2.3,3-5.4,3.52-8.48,1.32-3.42-2.44-7.87-4.19-8.91-8.72a15.88,15.88,0,0,1,2.84-13c1.15-1.6,3.17-1.55,4.83-.86a22.33,22.33,0,0,1,12,11.76A6.61,6.61,0,0,1,93.85,27Z"/><path class="cls-2" d="M135.45,176.17a30,30,0,0,1-3,9.5,3.74,3.74,0,0,1-5.39,1.58c-4.66-2.65-8.9-5.82-11.36-10.81a9.33,9.33,0,0,1,4-12.39,5,5,0,0,1,5,.13c2.73,1.67,5.43,3.43,8,5.33C134.73,171,135.33,173.32,135.45,176.17Z"/><path class="cls-1" d="M1191.07,67.37c0,8.08-6.18,14.15-14.52,14.2a14.39,14.39,0,0,1-14.66-14.21c0-7.86,6.51-14,14.79-14S1191.06,59.37,1191.07,67.37Zm-3.76.15a10.9,10.9,0,0,0-10.88-11.31c-5.74-.11-10.66,5-10.67,11,0,6.41,4.68,11.27,10.89,11.28A10.8,10.8,0,0,0,1187.31,67.52Z"/><path class="cls-2" d="M165,138c6.24,0,14.65,6.24,15.49,12.86.42,3.27-.91,5.3-4.12,5.09a26.69,26.69,0,0,1-11.5-3,12.85,12.85,0,0,1-5.77-6.49C157.05,141.48,159.54,137.84,165,138Z"/><path class="cls-2" d="M137.84,99.65c.14,11.2-2.42,19.92-9.7,26.36-8.06,7.13-17.86,10-28.62,8.87C83,133.21,72,121,68.35,106.67,65.16,94.25,70.56,81.06,81.88,72.9a48,48,0,0,1,12.54-6.31c6.38-2.21,12.64-.94,18.73.93,11.89,3.64,19.94,11.38,23.57,23.4A28.21,28.21,0,0,1,137.84,99.65ZM79.67,101.5c0,5.18,1.71,8.91,4.49,11.42,5.62,5.07,12.55,6.8,19.75,8a13.69,13.69,0,0,0,9.79-1.76c6.63-4.14,10.41-10.34,12-17.88a15,15,0,0,0-2-11c-3.78-6.33-9.62-9.67-16.61-11.1-3.36-.69-6.78-1.6-10.28-.28a23.13,23.13,0,0,0-6.89,4.61A29.81,29.81,0,0,0,79.67,101.5Z"/><path class="cls-1" d="M1180.28,67.74c2.26,1.4,2.19,3.77,2.83,5.81.15.49.19,1.17-.57,1.15-1,0-2.37.62-3-.81a24.91,24.91,0,0,1-.81-2.75c-.52-1.76-1.89-2.21-3.49-2-1.29,0-.91,1.31-.91,2.52s-.07,1.22,0,1.83c.07,1.34-.84,1.26-1.74,1.28s-1.56-.05-1.55-1.2c0-3.92,0-7.85,0-11.77,0-.92.49-1.23,1.28-1.27a48,48,0,0,1,5.74-.21c1.89.14,3.91.43,4.6,2.74S1182.2,66.68,1180.28,67.74Zm-5.81-3.15c0,1.61-.16,2.07,1.5,2.07s3.1.12,3.06-2c0-1.71-1.46-2-2.81-2C1174.61,62.7,1174.47,63,1174.47,64.59Z"/><path class="cls-2" d="M102.35,84.09c8-.3,19.83,9.63,17.1,20.4-1.35,5.33-5.25,8.17-10,9.65-6.47,2-12.78,1.53-18.17-3.13-4.51-3.89-6.53-8.8-5-14.69,1.62-6.23,5.56-10.31,12-11.68C99.58,84.35,101,84.27,102.35,84.09Zm-1.56,23.26a12,12,0,0,0,6.6-2.61c2.69-2.21,3.36-5,1.65-8-2.66-4.72-7.14-7-11.52-1.43a13.93,13.93,0,0,0-2.7,5.29C93.76,104.68,95.86,107.35,100.79,107.35Z"/></svg>